<svg id="Capa_1" enable-background="new 0 0 512 512" height="512" viewBox="0 0 512 512" width="512" xmlns="http://www.w3.org/2000/svg"><g><path d="m451.134 246.576v-62.37h-77.438l-30.836-116.412h-173.72l-30.835 116.412h-77.439v62.37h-60.866v197.63h512v-197.63zm-258.887-148.782h127.506l22.889 86.412h-173.283zm-131.381 316.412h-30.845v-137.63h30.845zm90.062 0v-99h210.144v99zm270.185 0h-30.021v-129h-270.185v129h-30.02v-200h39.471l-8.951 33.793 29.022 7.676 10.984-41.469h189.175l10.984 41.469 29.022-7.676-8.951-33.793h39.471v200zm60.866 0h-30.845v-137.63h30.845z"/><path d="m198.047 345.206h115.906v30h-115.906z"/></g></svg>