<?xml version="1.0"?>
<svg xmlns="http://www.w3.org/2000/svg" id="Outline" viewBox="0 0 512 512" width="512" height="512"><path d="M395.223,355.108C389.451,315.708,384,278.493,384,256c0-46.459,23.523-141.109,23.761-142.06a8,8,0,0,0-4.45-9.223L343,77.3l.18-.206A35.669,35.669,0,0,0,324.981,19L313.94,16.239a7.922,7.922,0,0,0-1.94-.215V16H200v.025a7.921,7.921,0,0,0-1.94.214L187.019,19a35.669,35.669,0,0,0-18.194,58.092l.18.206-60.316,27.419a8,8,0,0,0-4.45,9.223c.238.951,23.761,95.6,23.761,142.06,0,22.493-5.451,59.708-11.223,99.108C110.5,397.993,104,442.339,104,472a8,8,0,0,0,6.569,7.871C114.191,480.529,199.924,496,256,496s141.809-15.471,145.431-16.129A8,8,0,0,0,408,472C408,442.339,401.5,397.993,395.223,355.108ZM143.327,240H248v48H141.934A319.579,319.579,0,0,0,144,256C144,251.086,143.758,245.7,143.327,240ZM264,240H368.673c-.431,5.7-.673,11.086-.673,16a319.579,319.579,0,0,0,2.066,32H264Zm107.92,64c1.864,14.911,4.221,31.21,6.677,48H264V304Zm-1.661-80H264V176H377.88C374.9,191.762,372.109,208.5,370.259,224ZM248,224H141.741c-1.85-15.5-4.641-32.238-7.621-48H248ZM140.08,304H248v48H133.4C135.859,335.21,138.216,318.911,140.08,304ZM248,368v48H124.456c1.9-15.377,4.228-31.691,6.606-48Zm16,0H380.938c2.378,16.309,4.7,32.623,6.606,48H264ZM390.658,116.541c-2.047,8.538-5.779,24.569-9.632,43.459H264V129.409q2.611.221,5.214.225a61.707,61.707,0,0,0,46.527-21.19l16.251-18.572ZM288.738,48H223.262l-9.334-16h84.144ZM279.4,64,256,104.123,232.6,64Zm36.48-30.782,5.216,1.3a19.671,19.671,0,0,1,10.033,32.036L303.7,97.909a45.777,45.777,0,0,1-34.517,15.72h-.2ZM190.9,34.521l5.216-1.3,46.906,80.41A45.945,45.945,0,0,1,208.3,97.909L180.866,66.557A19.671,19.671,0,0,1,190.9,34.521ZM180.008,89.872l16.251,18.572a61.7,61.7,0,0,0,46.527,21.19q2.6,0,5.214-.225V160H130.974c-3.853-18.89-7.585-34.921-9.632-43.459ZM122.605,432H248V479.9c-45.426-1.125-107.618-11.147-127.894-14.6C120.405,455.451,121.311,444.169,122.605,432ZM264,479.9V432H389.4c1.294,12.169,2.2,23.451,2.5,33.293C371.622,468.749,309.441,478.77,264,479.9Z"/></svg>
